<svg width="80" height="72" viewBox="0 0 80 72" fill="none" xmlns="http://www.w3.org/2000/svg">
<path fill-rule="evenodd" clip-rule="evenodd" d="M41.0905 3.01402C47.8041 2.63242 54.8178 -0.716043 60.9014 2.14916C67.0285 5.03486 69.9279 12.0041 72.9972 18.0413C75.9452 23.8399 79.153 30.0079 78.3466 36.4627C77.5634 42.7322 72.0457 47.0431 68.7042 52.4055C65.4872 57.568 64.4212 64.7221 59.008 67.4967C53.5935 70.272 47.1583 66.112 41.0905 66.5595C34.3744 67.0549 27.7015 73.0621 21.5792 70.2572C15.5635 67.5012 15.4663 58.8953 12.025 53.2436C8.48421 47.4283 1.14543 43.2696 1.00226 36.4627C0.859312 29.6661 7.52568 24.9163 11.3105 19.2692C14.8388 14.0048 16.9758 7.36601 22.5385 4.32965C28.0744 1.30789 34.7936 3.37192 41.0905 3.01402Z" fill="white" stroke="#5B61D9" stroke-width="1.8"/>
<path d="M22.0053 49.0388C21.6598 48.6253 21.4446 48.0945 21.4446 47.5136V28.8202C21.4446 27.5044 22.5113 26.4377 23.827 26.4377H47.3123" stroke="#434A54" stroke-miterlimit="10" stroke-linecap="round" stroke-linejoin="round"/>
<path d="M58.0578 35.7283V47.5137C58.0578 48.0971 57.8537 48.6247 57.5057 49.0389" stroke="#434A54" stroke-miterlimit="10" stroke-linecap="round" stroke-linejoin="round"/>
<path d="M56.6603 37.7385V45.2223C56.6603 46.5381 55.5936 47.6047 54.2779 47.6047H25.2248C23.9091 47.6047 22.8424 46.5381 22.8424 45.2223V30.0467C22.8424 28.731 23.9091 27.6643 25.2248 27.6643H47.4826" stroke="#434A54" stroke-miterlimit="10" stroke-linecap="round" stroke-linejoin="round"/>
<path d="M60.7946 49.0391H18.708C18.1124 49.0391 17.6294 49.522 17.6294 50.1176V50.1954C17.6294 50.791 18.1124 51.2739 18.708 51.2739H60.7942C61.3898 51.2739 61.8728 50.791 61.8728 50.1954V50.1176C61.8731 49.522 61.3902 49.0391 60.7946 49.0391Z" stroke="#434A54" stroke-miterlimit="10" stroke-linecap="round" stroke-linejoin="round"/>
<path opacity="0.3" d="M46.6167 50.1569H32.886C32.5895 50.1569 32.3466 49.9143 32.3466 49.6174V49.5785C32.3466 49.282 32.5891 49.0391 32.886 49.0391H46.6167C46.9132 49.0391 47.1561 49.2816 47.1561 49.5785V49.6174C47.1558 49.9139 46.9132 50.1569 46.6167 50.1569Z" fill="#528AC8"/>
<path d="M46.6167 50.1569H32.886C32.5895 50.1569 32.3466 49.9143 32.3466 49.6174V49.5785C32.3466 49.282 32.5891 49.0391 32.886 49.0391H46.6167C46.9132 49.0391 47.1561 49.2816 47.1561 49.5785V49.6174C47.1558 49.9139 46.9132 50.1569 46.6167 50.1569Z" stroke="#434A54" stroke-miterlimit="10" stroke-linecap="round" stroke-linejoin="round"/>
<path d="M26.5546 31.3015H39.1505" stroke="#434A54" stroke-miterlimit="10" stroke-linecap="round" stroke-linejoin="round"/>
<path d="M26.5546 34.9004H40.9499" stroke="#434A54" stroke-miterlimit="10" stroke-linecap="round" stroke-linejoin="round"/>
<path d="M14.3687 25.5798V29.075" stroke="#434A54" stroke-miterlimit="10" stroke-linecap="round" stroke-linejoin="round"/>
<path d="M16.1162 27.3274H12.621" stroke="#434A54" stroke-miterlimit="10" stroke-linecap="round" stroke-linejoin="round"/>
<path d="M17.2346 33.3652V35.458" stroke="#434A54" stroke-miterlimit="10" stroke-linecap="round" stroke-linejoin="round"/>
<path d="M18.2808 34.4111H16.1885" stroke="#434A54" stroke-miterlimit="10" stroke-linecap="round" stroke-linejoin="round"/>
<path d="M61.2622 29.4265L62.425 29.1108L61.6807 26.3703L60.3434 26.7334C59.9673 26.0507 59.5351 25.5199 59.0457 25.0791L59.7233 23.8069L57.2229 22.349L56.5358 23.5427C55.7761 23.3016 54.9308 23.1864 54.1545 23.2174L53.8317 22.0283L51.274 22.7229L51.5968 23.912C50.5463 24.3773 50.1069 24.8253 49.5735 25.4173L48.3024 24.7393L46.8453 27.2394L48.075 28.0582C47.8756 28.6862 47.7565 29.3667 47.7774 30.1459L46.3339 30.5378L47.0781 33.2783L48.3471 32.9335C48.7357 33.8088 49.282 34.4882 49.9744 35.1119L49.2658 36.2711L51.7508 37.6725L52.5599 36.4154C53.3196 36.6565 53.9217 36.8073 55.0632 36.6774L55.4411 38.0687L57.9988 37.3741L57.6209 35.9828C58.3061 35.6165 58.9813 35.1047 59.5146 34.5123L60.7209 35.208L62.1457 32.7165L60.961 32.1277C61.2435 31.2399 61.3698 30.3783 61.2622 29.4265ZM55.5383 34.0909C53.2667 34.7077 50.9249 33.3665 50.3081 31.0949C49.6912 28.8233 51.0325 26.4815 53.3041 25.8643C55.5757 25.2475 57.9174 26.5888 58.5346 28.8604C59.1515 31.1323 57.8098 33.4741 55.5383 34.0909Z" stroke="#434A54" stroke-miterlimit="10" stroke-linecap="round" stroke-linejoin="round"/>
<path opacity="0.3" d="M61.2622 29.4265L62.425 29.1108L61.6807 26.3703L60.3434 26.7334C59.9673 26.0507 59.5351 25.5199 59.0457 25.0791L59.7233 23.8069L57.2229 22.349L56.5358 23.5427C55.7761 23.3016 54.9308 23.1864 54.1545 23.2174L53.8317 22.0283L51.274 22.7229L51.5968 23.912C50.5463 24.3773 50.1069 24.8253 49.5735 25.4173L48.3024 24.7393L46.8453 27.2394L48.075 28.0582C47.8756 28.6862 47.7565 29.3667 47.7774 30.1459L46.3339 30.5378L47.0781 33.2783L48.3471 32.9335C48.7357 33.8088 49.282 34.4882 49.9744 35.1119L49.2658 36.2711L51.7508 37.6725L52.5599 36.4154C53.3196 36.6565 53.9217 36.8073 55.0632 36.6774L55.4411 38.0687L57.9988 37.3741L57.6209 35.9828C58.3061 35.6165 58.9813 35.1047 59.5146 34.5123L60.7209 35.208L62.1457 32.7165L60.961 32.1277C61.2435 31.2399 61.3698 30.3783 61.2622 29.4265ZM55.5383 34.0909C53.2667 34.7077 50.9249 33.3665 50.3081 31.0949C49.6912 28.8233 51.0325 26.4815 53.3041 25.8643C55.5757 25.2475 57.9174 26.5888 58.5346 28.8604C59.1515 31.1323 57.8098 33.4741 55.5383 34.0909Z" fill="#528AC8"/>
<path d="M26.5546 38.1392H45.9883" stroke="#434A54" stroke-miterlimit="10" stroke-linecap="round" stroke-linejoin="round"/>
<path opacity="0.3" d="M52.3269 44.7272H27.1757C26.6975 44.7272 26.3059 44.336 26.3059 43.8573V41.9924C26.3059 41.5141 26.6975 41.1226 27.1757 41.1226H52.3269C52.8052 41.1226 53.1968 41.5138 53.1968 41.9924V43.8573C53.1968 44.336 52.8052 44.7272 52.3269 44.7272Z" fill="#528AC8"/>
</svg>
