<svg width="80" height="72" viewBox="0 0 80 72" fill="none" xmlns="http://www.w3.org/2000/svg">
<path fill-rule="evenodd" clip-rule="evenodd" d="M41.0905 3.01402C47.8041 2.63242 54.8178 -0.716043 60.9014 2.14916C67.0285 5.03486 69.9279 12.0041 72.9972 18.0413C75.9452 23.8399 79.153 30.0079 78.3466 36.4627C77.5634 42.7322 72.0457 47.0431 68.7042 52.4055C65.4872 57.568 64.4212 64.7221 59.008 67.4967C53.5935 70.272 47.1583 66.112 41.0905 66.5595C34.3744 67.0549 27.7015 73.0621 21.5792 70.2572C15.5635 67.5012 15.4663 58.8953 12.025 53.2436C8.48421 47.4283 1.14543 43.2696 1.00226 36.4627C0.859312 29.6661 7.52568 24.9163 11.3105 19.2692C14.8388 14.0048 16.9758 7.36601 22.5385 4.32965C28.0744 1.30789 34.7936 3.37192 41.0905 3.01402Z" fill="white" stroke="#5B61D9" stroke-width="1.8"/>
<path d="M54.0184 33.7203V43.7969C54.0184 45.6258 52.5221 47.1225 50.6928 47.1225H29.7325C27.9035 47.1225 26.4069 45.6261 26.4069 43.7969V27.4556" stroke="#434A54" stroke-miterlimit="10" stroke-linecap="round" stroke-linejoin="round"/>
<path d="M54.0184 27.4556V30.7306" stroke="#434A54" stroke-miterlimit="10" stroke-linecap="round" stroke-linejoin="round"/>
<path opacity="0.3" d="M54.9205 24.3861H43.8688C43.8546 24.108 43.4309 23.2739 42.9124 23.2739H37.3658C36.8473 23.2739 36.4235 24.108 36.4094 24.3861H25.3577C24.6567 24.3861 24 24.6647 24 25.3459V25.6903C24 26.3715 24.6567 27.1664 25.3577 27.1664H54.9205C55.6214 27.1664 55.9743 26.3713 55.9743 25.6903V25.3459C55.9743 24.6647 55.6214 24.3861 54.9205 24.3861ZM42.3568 25.4982H38.0128C37.66 25.4982 37.3714 25.295 37.3714 24.9421C37.3714 24.5893 37.66 24.3861 38.0128 24.3861H42.3566C42.7094 24.3861 42.998 24.5893 42.998 24.9421C42.9983 25.295 42.7097 25.4982 42.3568 25.4982Z" fill="#528AC8"/>
<path d="M54.9204 24.2474H43.8687C43.8545 23.9694 43.4308 23.1353 42.9123 23.1353H37.3657C36.8472 23.1353 36.4234 23.9694 36.4093 24.2474H25.3576C24.6566 24.2474 24.1389 24.7031 24.1389 25.404V25.7585C24.1389 26.4595 24.6566 27.3058 25.3576 27.3058H54.9204C55.6213 27.3058 56.1132 26.4595 56.1132 25.7585V25.404C56.1132 24.7031 55.6213 24.2474 54.9204 24.2474Z" stroke="#434A54" stroke-miterlimit="10" stroke-linecap="round" stroke-linejoin="round"/>
<path d="M42.4247 25.4779H37.9447C37.6294 25.4779 37.3713 25.2199 37.3713 24.9046V24.7686C37.3713 24.4533 37.6294 24.1953 37.9447 24.1953H42.4247C42.74 24.1953 42.9983 24.4533 42.9983 24.7686V24.9046C42.9983 25.2196 42.7402 25.4779 42.4247 25.4779Z" stroke="#434A54" stroke-miterlimit="10" stroke-linecap="round" stroke-linejoin="round"/>
<path d="M21.8259 30.7588V33.6743" stroke="#434A54" stroke-miterlimit="10" stroke-linecap="round" stroke-linejoin="round"/>
<path d="M20.3682 32.2163H23.2837" stroke="#434A54" stroke-miterlimit="10" stroke-linecap="round" stroke-linejoin="round"/>
<path d="M32.2826 34.7534V36.4989" stroke="#434A54" stroke-miterlimit="10" stroke-linecap="round" stroke-linejoin="round"/>
<path d="M31.4099 35.626H33.1554" stroke="#434A54" stroke-miterlimit="10" stroke-linecap="round" stroke-linejoin="round"/>
<path d="M47.6117 31.3438V33.0893" stroke="#434A54" stroke-miterlimit="10" stroke-linecap="round" stroke-linejoin="round"/>
<path d="M48.4844 32.2163H46.7389" stroke="#434A54" stroke-miterlimit="10" stroke-linecap="round" stroke-linejoin="round"/>
<path d="M57.6469 36.9272V39.8427" stroke="#434A54" stroke-miterlimit="10" stroke-linecap="round" stroke-linejoin="round"/>
<path d="M59.1046 38.3853H56.1891" stroke="#434A54" stroke-miterlimit="10" stroke-linecap="round" stroke-linejoin="round"/>
<path d="M40.2159 47.1221L40.2129 51.138" stroke="#434A54" stroke-miterlimit="10" stroke-linecap="round" stroke-linejoin="round"/>
<path d="M40.2127 53.2101C40.7849 53.2101 41.2487 52.7463 41.2487 52.1741C41.2487 51.602 40.7849 51.1382 40.2127 51.1382C39.6406 51.1382 39.1768 51.602 39.1768 52.1741C39.1768 52.7463 39.6406 53.2101 40.2127 53.2101Z" stroke="#434A54" stroke-miterlimit="10" stroke-linecap="round" stroke-linejoin="round"/>
<path d="M46.7874 39.1287L53.1616 33.2529" stroke="#434A54" stroke-miterlimit="10" stroke-linecap="round" stroke-linejoin="round"/>
<path d="M41.4354 35.6016L44.5792 39.012" stroke="#434A54" stroke-miterlimit="10" stroke-linecap="round" stroke-linejoin="round"/>
<path d="M32.8344 41.3403L39.2467 35.4292" stroke="#434A54" stroke-miterlimit="10" stroke-linecap="round" stroke-linejoin="round"/>
<path opacity="0.3" d="M54.4534 33.7311C55.2852 33.6325 55.8796 32.8783 55.781 32.0465C55.6824 31.2147 54.9282 30.6204 54.0964 30.7189C53.2646 30.8175 52.6703 31.5718 52.7688 32.4035C52.8674 33.2353 53.6217 33.8297 54.4534 33.7311Z" fill="#528AC8"/>
<path d="M54.4534 33.7311C55.2852 33.6325 55.8796 32.8783 55.781 32.0465C55.6824 31.2147 54.9282 30.6204 54.0964 30.7189C53.2646 30.8175 52.6703 31.5718 52.7688 32.4035C52.8674 33.2353 53.6217 33.8297 54.4534 33.7311Z" stroke="#434A54" stroke-miterlimit="10" stroke-linecap="round" stroke-linejoin="round"/>
<path opacity="0.3" d="M45.805 41.6129C46.6368 41.5143 47.2312 40.7601 47.1326 39.9283C47.034 39.0966 46.2798 38.5022 45.448 38.6008C44.6162 38.6994 44.0218 39.4536 44.1204 40.2854C44.219 41.1172 44.9732 41.7115 45.805 41.6129Z" fill="#528AC8"/>
<path d="M45.805 41.6129C46.6368 41.5143 47.2312 40.7601 47.1326 39.9283C47.034 39.0966 46.2798 38.5022 45.448 38.6008C44.6162 38.6994 44.0218 39.4536 44.1204 40.2854C44.219 41.1172 44.9732 41.7115 45.805 41.6129Z" stroke="#434A54" stroke-miterlimit="10" stroke-linecap="round" stroke-linejoin="round"/>
<path opacity="0.3" d="M40.6003 35.9772C41.4321 35.8786 42.0264 35.1244 41.9278 34.2926C41.8293 33.4608 41.075 32.8664 40.2433 32.965C39.4115 33.0636 38.8171 33.8178 38.9157 34.6496C39.0143 35.4814 39.7685 36.0758 40.6003 35.9772Z" fill="#528AC8"/>
<path d="M40.6003 35.9772C41.4321 35.8786 42.0264 35.1244 41.9278 34.2926C41.8293 33.4608 41.075 32.8664 40.2433 32.965C39.4115 33.0636 38.8171 33.8178 38.9157 34.6496C39.0143 35.4814 39.7685 36.0758 40.6003 35.9772Z" stroke="#434A54" stroke-miterlimit="10" stroke-linecap="round" stroke-linejoin="round"/>
<path opacity="0.3" d="M31.897 43.8732C32.7288 43.7746 33.3232 43.0204 33.2246 42.1886C33.126 41.3568 32.3718 40.7624 31.54 40.861C30.7082 40.9596 30.1139 41.7138 30.2125 42.5456C30.311 43.3774 31.0653 43.9718 31.897 43.8732Z" fill="#528AC8"/>
<path d="M31.897 43.8732C32.7288 43.7746 33.3232 43.0204 33.2246 42.1886C33.126 41.3568 32.3718 40.7624 31.54 40.861C30.7082 40.9596 30.1139 41.7138 30.2125 42.5456C30.311 43.3774 31.0653 43.9718 31.897 43.8732Z" stroke="#434A54" stroke-miterlimit="10" stroke-linecap="round" stroke-linejoin="round"/>
<path opacity="0.3" d="M54.0185 27.2393H26.4072V29.0796H54.0185V27.2393Z" fill="#528AC8"/>
</svg>
