<svg width="80" height="72" viewBox="0 0 80 72" fill="none" xmlns="http://www.w3.org/2000/svg">
<path fill-rule="evenodd" clip-rule="evenodd" d="M41.0905 3.01402C47.8041 2.63242 54.8178 -0.716043 60.9014 2.14916C67.0285 5.03486 69.9279 12.0041 72.9972 18.0413C75.9452 23.8399 79.153 30.0079 78.3466 36.4627C77.5634 42.7322 72.0457 47.0431 68.7042 52.4055C65.4872 57.568 64.4212 64.7221 59.008 67.4967C53.5935 70.272 47.1583 66.112 41.0905 66.5595C34.3744 67.0549 27.7015 73.0621 21.5792 70.2572C15.5635 67.5012 15.4663 58.8953 12.025 53.2436C8.48421 47.4283 1.14543 43.2696 1.00226 36.4627C0.859312 29.6661 7.52568 24.9163 11.3105 19.2692C14.8388 14.0048 16.9758 7.36601 22.5385 4.32965C28.0744 1.30789 34.7936 3.37192 41.0905 3.01402Z" fill="white" stroke="#5B61D9" stroke-width="1.8"/>
<path d="M53.5704 45.4152C53.5682 45.2943 53.5275 45.1774 53.4544 45.0811C53.1946 43.278 52.4671 41.5743 51.3444 40.1396C50.2217 38.7049 48.7428 37.5892 47.055 36.9035C47.0411 36.8974 47.0268 36.8922 47.0123 36.8878C46.0494 36.5024 45.0339 36.2643 44.0001 36.1814C45.8389 35.1416 47.2391 33.4712 47.9419 31.4791H49.4166C50.0639 31.478 50.6843 31.2203 51.142 30.7626C51.5997 30.305 51.8573 29.6845 51.8585 29.0373V19.18C51.8585 19.0253 51.797 18.8769 51.6876 18.7675C51.5782 18.658 51.4298 18.5966 51.2751 18.5966C51.1203 18.5966 50.9719 18.658 50.8625 18.7675C50.7531 18.8769 50.6916 19.0253 50.6916 19.18V23.6713C50.3094 23.4316 49.8678 23.3035 49.4166 23.3015H48.0841C47.5556 21.4969 46.4565 19.9121 44.9516 18.7847C43.4466 17.6572 41.6168 17.0479 39.7364 17.0479C37.856 17.0479 36.0262 17.6572 34.5212 18.7847C33.0163 19.9121 31.9172 21.4969 31.3887 23.3015H30.0562C29.6044 23.3032 29.1622 23.4313 28.7794 23.6713V19.18C28.7713 19.031 28.7064 18.8908 28.598 18.7882C28.4896 18.6856 28.3461 18.6285 28.1969 18.6285C28.0477 18.6285 27.9041 18.6856 27.7958 18.7882C27.6874 18.8908 27.6225 19.031 27.6143 19.18V29.0347C27.6155 29.6819 27.8731 30.3023 28.3308 30.76C28.7885 31.2177 29.4089 31.4754 30.0562 31.4765H31.5318C32.233 33.471 33.633 35.144 35.4728 36.1858C34.4396 36.2689 33.4248 36.5067 32.4623 36.8913C32.4466 36.8974 32.4309 36.9009 32.4161 36.9079C30.7294 37.5938 29.2514 38.709 28.1291 40.1428C27.0068 41.5766 26.2791 43.2791 26.0184 45.0811C25.9575 45.1596 25.9189 45.253 25.9066 45.3515C25.8943 45.45 25.9088 45.5501 25.9486 45.641C25.9225 45.9428 25.9024 46.2454 25.9024 46.5541V50.0294C25.8994 50.1079 25.9122 50.1861 25.9401 50.2595C25.9681 50.3329 26.0105 50.3999 26.065 50.4564C26.1194 50.513 26.1847 50.558 26.2569 50.5888C26.3292 50.6195 26.4069 50.6354 26.4854 50.6354C26.5639 50.6354 26.6416 50.6195 26.7139 50.5888C26.7861 50.558 26.8514 50.513 26.9059 50.4564C26.9603 50.3999 27.0027 50.3329 27.0307 50.2595C27.0586 50.1861 27.0714 50.1079 27.0684 50.0294V46.5559C27.0684 46.3675 27.0858 46.1835 27.0972 45.9986H32.076V50.0311C32.076 50.1859 32.1374 50.3343 32.2468 50.4437C32.3562 50.5531 32.5046 50.6146 32.6594 50.6146C32.8141 50.6146 32.9625 50.5531 33.0719 50.4437C33.1813 50.3343 33.2428 50.1859 33.2428 50.0311V37.8428C34.2293 37.4897 35.2691 37.3083 36.3169 37.3064H43.1568C44.2043 37.3087 45.2437 37.4901 46.23 37.8428V50.0311C46.23 50.1859 46.2915 50.3343 46.4009 50.4437C46.5103 50.5531 46.6587 50.6146 46.8134 50.6146C46.9682 50.6146 47.1166 50.5531 47.226 50.4437C47.3354 50.3343 47.3969 50.1859 47.3969 50.0311V45.9986H52.3756C52.387 46.1835 52.4044 46.3675 52.4044 46.5559V50.0311C52.4014 50.1096 52.4142 50.1879 52.4421 50.2612C52.4701 50.3346 52.5125 50.4016 52.567 50.4582C52.6214 50.5148 52.6867 50.5598 52.7589 50.5905C52.8312 50.6213 52.9089 50.6371 52.9874 50.6371C53.0659 50.6371 53.1436 50.6213 53.2159 50.5905C53.2881 50.5598 53.3534 50.5148 53.4079 50.4582C53.4623 50.4016 53.5047 50.3346 53.5327 50.2612C53.5606 50.1879 53.5734 50.1096 53.5704 50.0311V46.5559C53.5704 46.2471 53.5503 45.9454 53.5242 45.6428C53.5548 45.5708 53.5705 45.4934 53.5704 45.4152V45.4152ZM49.4166 24.4684C49.7552 24.4686 50.0798 24.6032 50.3192 24.8426C50.5586 25.082 50.6931 25.4066 50.6934 25.7451V29.0347C50.6936 29.3736 50.5592 29.6987 50.3198 29.9386C50.0804 30.1785 49.7556 30.3135 49.4166 30.314H48.2698C48.3847 29.7509 48.4431 29.1777 48.4442 28.603V25.753C48.441 25.3227 48.4058 24.8934 48.3387 24.4684H49.4166ZM39.7364 18.2146C41.6658 18.2178 43.5206 18.9604 44.919 20.2897C46.3174 21.619 47.153 23.4338 47.2538 25.3605H32.2181C32.3192 23.4337 33.155 21.6189 34.5535 20.2897C35.9521 18.9604 37.8069 18.2178 39.7364 18.2146V18.2146ZM46.7428 26.5265C45.8271 27.594 43.7367 29.3015 39.7364 29.3015C35.7039 29.3015 33.6257 27.5957 32.7187 26.5265H46.7428ZM30.0562 30.314C29.8883 30.3139 29.7221 30.2807 29.567 30.2164C29.4119 30.152 29.2711 30.0577 29.1524 29.9389C29.0338 29.8201 28.9397 29.6791 28.8756 29.524C28.8114 29.3688 28.7785 29.2025 28.7786 29.0347V25.7451C28.7788 25.4064 28.9135 25.0817 29.1531 24.8423C29.3927 24.6029 29.7175 24.4684 30.0562 24.4684H31.1376C31.0706 24.8934 31.0353 25.3227 31.0321 25.753V28.603C31.0332 29.1777 31.0916 29.7509 31.2065 30.314H30.0562ZM32.1989 28.603V27.6759C33.4068 28.9117 35.7213 30.4666 39.7382 30.4666C43.755 30.4666 46.0678 28.9099 47.2756 27.6759V28.6021C47.2756 30.6014 46.4814 32.5188 45.0677 33.9325C43.654 35.3462 41.7366 36.1405 39.7373 36.1405C37.738 36.1405 35.8206 35.3462 34.4069 33.9325C32.9931 32.5188 32.1989 30.6014 32.1989 28.6021V28.603ZM32.0768 44.8317H27.2367C27.5005 43.455 28.0732 42.1561 28.9115 41.0327C29.7499 39.9093 30.8321 38.9907 32.0768 38.346V44.8317ZM47.3977 44.8317V38.3451C48.6425 38.99 49.7247 39.9088 50.5631 41.0323C51.4014 42.1559 51.974 43.4549 52.2378 44.8317H47.3977Z" fill="#797A7C"/>
<path d="M44.0139 41.7915H41.8014C41.6467 41.7915 41.4983 41.853 41.3889 41.9624C41.2795 42.0718 41.218 42.2202 41.218 42.3749C41.218 42.5297 41.2795 42.6781 41.3889 42.7875C41.4983 42.8969 41.6467 42.9584 41.8014 42.9584H44.0139C44.1687 42.9584 44.3171 42.8969 44.4265 42.7875C44.5359 42.6781 44.5974 42.5297 44.5974 42.3749C44.5974 42.2202 44.5359 42.0718 44.4265 41.9624C44.3171 41.853 44.1687 41.7915 44.0139 41.7915V41.7915Z" fill="#797A7C"/>
<path d="M44.014 44.2468H41.8015C41.7231 44.2437 41.6448 44.2566 41.5714 44.2845C41.4981 44.3124 41.4311 44.3549 41.3745 44.4093C41.3179 44.4638 41.2729 44.5291 41.2422 44.6013C41.2114 44.6735 41.1956 44.7513 41.1956 44.8298C41.1956 44.9083 41.2114 44.986 41.2422 45.0582C41.2729 45.1305 41.3179 45.1958 41.3745 45.2502C41.4311 45.3046 41.4981 45.3471 41.5714 45.375C41.6448 45.403 41.7231 45.4158 41.8015 45.4128H44.014C44.0925 45.4158 44.1708 45.403 44.2441 45.375C44.3175 45.3471 44.3845 45.3046 44.4411 45.2502C44.4977 45.1958 44.5427 45.1305 44.5734 45.0582C44.6042 44.986 44.62 44.9083 44.62 44.8298C44.62 44.7513 44.6042 44.6735 44.5734 44.6013C44.5427 44.5291 44.4977 44.4638 44.4411 44.4093C44.3845 44.3549 44.3175 44.3124 44.2441 44.2845C44.1708 44.2566 44.0925 44.2437 44.014 44.2468Z" fill="#797A7C"/>
</svg>
