<svg width="80" height="72" viewBox="0 0 80 72" fill="none" xmlns="http://www.w3.org/2000/svg">
<path fill-rule="evenodd" clip-rule="evenodd" d="M41.0905 3.01402C47.8041 2.63242 54.8178 -0.716043 60.9014 2.14916C67.0285 5.03486 69.9279 12.0041 72.9972 18.0413C75.9452 23.8399 79.153 30.0079 78.3466 36.4627C77.5634 42.7322 72.0457 47.0431 68.7042 52.4055C65.4872 57.568 64.4212 64.7221 59.008 67.4967C53.5935 70.272 47.1583 66.112 41.0905 66.5595C34.3744 67.0549 27.7015 73.0621 21.5792 70.2572C15.5635 67.5012 15.4663 58.8953 12.025 53.2436C8.48421 47.4283 1.14543 43.2696 1.00226 36.4627C0.859312 29.6661 7.52568 24.9163 11.3105 19.2692C14.8388 14.0048 16.9758 7.36601 22.5385 4.32965C28.0744 1.30789 34.7936 3.37192 41.0905 3.01402Z" fill="white" stroke="#5B61D9" stroke-width="1.8"/>
<path d="M24.9753 33.4108V24.571C24.9753 23.8092 25.5985 23.186 26.3603 23.186H53.4036C54.1654 23.186 54.7885 23.8092 54.7885 24.571V28.5573" stroke="#434A54" stroke-miterlimit="10" stroke-linecap="round" stroke-linejoin="round"/>
<path d="M54.7885 41.6243V48.4012C54.7885 49.163 54.1654 49.7861 53.4036 49.7861H26.3603C25.5985 49.7861 24.9753 49.163 24.9753 48.4012V43.4908" stroke="#434A54" stroke-miterlimit="10" stroke-linecap="round" stroke-linejoin="round"/>
<path opacity="0.3" d="M24.9753 25.9856V24.6111C24.9753 23.8274 25.6164 23.186 26.4004 23.186H53.3642C54.1478 23.186 54.7892 23.8271 54.7892 24.6111V25.9856H24.9753Z" fill="#528AC8"/>
<path d="M24.9753 25.9856V24.6111C24.9753 23.8274 25.6164 23.186 26.4004 23.186H53.3642C54.1478 23.186 54.7892 23.8271 54.7892 24.6111V25.9856H24.9753Z" stroke="#434A54" stroke-miterlimit="10" stroke-linecap="round" stroke-linejoin="round"/>
<path d="M26.7916 24.9012C26.9658 24.9012 27.107 24.76 27.107 24.5858C27.107 24.4117 26.9658 24.2705 26.7916 24.2705C26.6175 24.2705 26.4763 24.4117 26.4763 24.5858C26.4763 24.76 26.6175 24.9012 26.7916 24.9012Z" fill="#3D6CB4"/>
<path d="M28.0515 24.9012C28.2257 24.9012 28.3669 24.76 28.3669 24.5858C28.3669 24.4117 28.2257 24.2705 28.0515 24.2705C27.8774 24.2705 27.7362 24.4117 27.7362 24.5858C27.7362 24.76 27.8774 24.9012 28.0515 24.9012Z" fill="#3D6CB4"/>
<path opacity="0.3" d="M52.4791 31.8036H27.2848C26.8086 31.8036 26.4187 31.4137 26.4187 30.9375V29.0606C26.4187 28.5844 26.8086 28.1946 27.2848 28.1946H52.4788C52.955 28.1946 53.3448 28.5844 53.3448 29.0606V30.9375C53.3448 31.4137 52.9553 31.8036 52.4791 31.8036Z" fill="#528AC8"/>
<path opacity="0.3" d="M52.4791 38.0101H27.2848C26.8086 38.0101 26.4187 37.6203 26.4187 37.1441V35.2672C26.4187 34.791 26.8086 34.4011 27.2848 34.4011H52.4788C52.955 34.4011 53.3448 34.7906 53.3448 35.2672V37.1441C53.3448 37.6207 52.9553 38.0101 52.4791 38.0101Z" fill="#528AC8"/>
<path opacity="0.3" d="M52.4791 44.2172H27.2848C26.8086 44.2172 26.4187 43.8273 26.4187 43.3511V41.4742C26.4187 40.998 26.8086 40.6082 27.2848 40.6082H52.4788C52.955 40.6082 53.3448 40.998 53.3448 41.4742V43.3515C53.3448 43.8277 52.9553 44.2172 52.4791 44.2172Z" fill="#528AC8"/>
<path d="M29.3113 24.9012C29.4854 24.9012 29.6266 24.76 29.6266 24.5858C29.6266 24.4117 29.4854 24.2705 29.3113 24.2705C29.1371 24.2705 28.996 24.4117 28.996 24.5858C28.996 24.76 29.1371 24.9012 29.3113 24.9012Z" fill="#3D6CB4"/>
<path d="M60.9469 28.5364H49.0563C47.0028 28.5364 45.2889 30.2509 45.2889 32.3041V37.7356C45.2889 39.7891 46.7222 41.6241 48.8722 41.6241V45.0156L52.7309 41.7943H60.9469C63.0005 41.7943 64.6384 39.7888 64.6384 37.7356V32.3041C64.6384 30.2509 63.0005 28.5364 60.9469 28.5364Z" fill="white" stroke="#434A54" stroke-miterlimit="10" stroke-linecap="round" stroke-linejoin="round"/>
<path d="M23.8458 33.553H33.145C34.751 33.553 35.9725 34.6563 35.9725 36.2623V40.5098C35.9725 42.0474 34.7359 43.3259 33.2321 43.4319C33.2324 43.4391 33.1059 43.4391 33.1059 43.4391V46.2032L30.2709 43.586H23.8458C22.2398 43.586 20.923 42.1158 20.923 40.5098V36.2623C20.923 34.6563 22.2398 33.553 23.8458 33.553Z" fill="white" stroke="#434A54" stroke-miterlimit="10" stroke-linecap="round" stroke-linejoin="round"/>
<path d="M23.8458 33.553H33.145C34.751 33.553 35.9725 34.6563 35.9725 36.2623V40.5098C35.9725 42.0474 34.7359 43.3259 33.2321 43.4319C33.2324 43.4391 33.1059 43.4391 33.1059 43.4391V46.2032L30.2709 43.586H23.8458C22.2398 43.586 20.923 42.1158 20.923 40.5098V36.2623C20.923 34.6563 22.2398 33.553 23.8458 33.553Z" stroke="#434A54" stroke-miterlimit="10" stroke-linecap="round" stroke-linejoin="round"/>
<path d="M23.2521 36.0613H32.9268" stroke="#434A54" stroke-miterlimit="10" stroke-linecap="round" stroke-linejoin="round"/>
<path d="M23.2521 38.2112H31.4935" stroke="#434A54" stroke-miterlimit="10" stroke-linecap="round" stroke-linejoin="round"/>
<path d="M23.2521 40.3611H28.9852" stroke="#434A54" stroke-miterlimit="10" stroke-linecap="round" stroke-linejoin="round"/>
<path d="M48.693 31.7615H60.876" stroke="#434A54" stroke-miterlimit="10" stroke-linecap="round" stroke-linejoin="round"/>
<path d="M48.693 34.6279H57.6511" stroke="#434A54" stroke-miterlimit="10" stroke-linecap="round" stroke-linejoin="round"/>
<path d="M48.693 37.1362H54.7845" stroke="#434A54" stroke-miterlimit="10" stroke-linecap="round" stroke-linejoin="round"/>
<path d="M16.5841 23.135V26.6347" stroke="#434A54" stroke-miterlimit="10" stroke-linecap="round" stroke-linejoin="round"/>
<path d="M14.8345 24.8848H18.3342" stroke="#434A54" stroke-miterlimit="10" stroke-linecap="round" stroke-linejoin="round"/>
<path d="M20.574 28.7212V30.8163" stroke="#434A54" stroke-miterlimit="10" stroke-linecap="round" stroke-linejoin="round"/>
<path d="M19.5266 29.769H21.6217" stroke="#434A54" stroke-miterlimit="10" stroke-linecap="round" stroke-linejoin="round"/>
<path d="M62.1578 45.2002V48.6999" stroke="#434A54" stroke-miterlimit="10" stroke-linecap="round" stroke-linejoin="round"/>
<path d="M60.408 46.95H63.9077" stroke="#434A54" stroke-miterlimit="10" stroke-linecap="round" stroke-linejoin="round"/>
</svg>
