<svg width="80" height="72" viewBox="0 0 80 72" fill="none" xmlns="http://www.w3.org/2000/svg">
<path fill-rule="evenodd" clip-rule="evenodd" d="M41.0905 3.01402C47.8041 2.63242 54.8178 -0.716043 60.9014 2.14916C67.0285 5.03486 69.9279 12.0041 72.9972 18.0413C75.9452 23.8399 79.153 30.0079 78.3466 36.4627C77.5634 42.7322 72.0457 47.0431 68.7042 52.4055C65.4872 57.568 64.4212 64.7221 59.008 67.4967C53.5935 70.272 47.1583 66.112 41.0905 66.5595C34.3744 67.0549 27.7015 73.0621 21.5792 70.2572C15.5635 67.5012 15.4663 58.8953 12.025 53.2436C8.48421 47.4283 1.14543 43.2696 1.00226 36.4627C0.859312 29.6661 7.52568 24.9163 11.3105 19.2692C14.8388 14.0048 16.9758 7.36601 22.5385 4.32965C28.0744 1.30789 34.7936 3.37192 41.0905 3.01402Z" fill="white" stroke="#5B61D9" stroke-width="1.8"/>
<path opacity="0.3" d="M38.3508 47.1646H31.5767V48.7786H38.3508V47.1646Z" fill="#528AC8"/>
<path d="M46.0202 47.2057H21.4862C19.3495 47.2057 17.6013 45.4575 17.6013 43.3208V24.345C17.6013 22.2084 19.3495 20.4602 21.4862 20.4602H48.5113C50.648 20.4602 52.3962 22.2084 52.3962 24.345V31.6153" stroke="#434A54" stroke-miterlimit="10" stroke-linecap="round" stroke-linejoin="round"/>
<path d="M46.0202 41.641H21.5116C20.3638 41.641 19.4247 40.7019 19.4247 39.554V24.4547C19.4247 23.3069 20.3638 22.3674 21.512 22.3674H48.4862C49.634 22.3674 50.5731 23.3065 50.5731 24.4544V31.4469" stroke="#434A54" stroke-miterlimit="10" stroke-linecap="round" stroke-linejoin="round"/>
<path opacity="0.3" d="M19.4244 25.1167V24.4547C19.4244 23.3069 20.3635 22.3674 21.5117 22.3674H48.4859C49.6338 22.3674 50.5729 23.3065 50.5729 24.4544V25.1167H19.4244Z" fill="#528AC8"/>
<path d="M19.4244 25.1167V24.4547C19.4244 23.3069 20.3635 22.3674 21.5117 22.3674H48.4859C49.6338 22.3674 50.5729 23.3065 50.5729 24.4544V25.1167H19.4244Z" stroke="#434A54" stroke-miterlimit="10" stroke-linecap="round" stroke-linejoin="round"/>
<path opacity="0.3" d="M34.9989 45.6666C35.6412 45.6666 36.1619 45.1459 36.1619 44.5036C36.1619 43.8613 35.6412 43.3406 34.9989 43.3406C34.3566 43.3406 33.8359 43.8613 33.8359 44.5036C33.8359 45.1459 34.3566 45.6666 34.9989 45.6666Z" fill="#528AC8"/>
<path d="M34.9989 45.6666C35.6412 45.6666 36.1619 45.1459 36.1619 44.5036C36.1619 43.8613 35.6412 43.3406 34.9989 43.3406C34.3566 43.3406 33.8359 43.8613 33.8359 44.5036C33.8359 45.1459 34.3566 45.6666 34.9989 45.6666Z" stroke="#434A54" stroke-miterlimit="10" stroke-linecap="round" stroke-linejoin="round"/>
<path d="M38.3999 47.2888C38.3999 47.2888 37.7856 51.2595 40.8091 51.2595C37.1246 51.2595 34.7625 51.2595 34.7625 51.2595H35.1402C35.1402 51.2595 32.8729 51.2595 29.1881 51.2595C32.2113 51.2595 31.5499 47.3301 31.5499 47.3301" stroke="#434A54" stroke-miterlimit="10" stroke-linecap="round" stroke-linejoin="round"/>
<path d="M33.3613 27.1841H21.762V31.518H33.3613V27.1841Z" stroke="#434A54" stroke-miterlimit="10" stroke-linecap="round" stroke-linejoin="round"/>
<path d="M35.254 27.7095H44.9323" stroke="#434A54" stroke-miterlimit="10" stroke-linecap="round" stroke-linejoin="round"/>
<path d="M35.254 29.645H46.5453" stroke="#434A54" stroke-miterlimit="10" stroke-linecap="round" stroke-linejoin="round"/>
<path d="M35.254 30.9355H44.9323" stroke="#434A54" stroke-miterlimit="10" stroke-linecap="round" stroke-linejoin="round"/>
<path opacity="0.3" d="M27.5618 33.9082H21.762V39.708H27.5618V33.9082Z" fill="#528AC8"/>
<path d="M27.5618 33.9082H21.762V39.708H27.5618V33.9082Z" stroke="#434A54" stroke-miterlimit="10" stroke-linecap="round" stroke-linejoin="round"/>
<path d="M35.4648 33.9082H29.6649V39.708H35.4648V33.9082Z" stroke="#434A54" stroke-miterlimit="10" stroke-linecap="round" stroke-linejoin="round"/>
<path d="M43.3677 33.9082H37.5679V39.708H43.3677V33.9082Z" stroke="#434A54" stroke-miterlimit="10" stroke-linecap="round" stroke-linejoin="round"/>
<path d="M59.8907 53.6227H47.5893C46.7337 53.6227 46.0337 52.9227 46.0337 52.0671V33.1694C46.0337 32.3138 46.7337 31.6138 47.5893 31.6138H59.8907C60.7462 31.6138 61.4463 32.3138 61.4463 33.1694V52.0671C61.4463 52.9227 60.7462 53.6227 59.8907 53.6227Z" stroke="#434A54" stroke-miterlimit="10" stroke-linecap="round" stroke-linejoin="round"/>
<path d="M59.3665 50.0818H48.1139C47.56 50.0818 47.1106 49.6327 47.1106 49.0785V33.8727C47.1106 33.3188 47.5597 32.8694 48.1139 32.8694H59.3665C59.9204 32.8694 60.3698 33.3185 60.3698 33.8727V49.0785C60.3695 49.6327 59.9204 50.0818 59.3665 50.0818Z" stroke="#434A54" stroke-miterlimit="10" stroke-linecap="round" stroke-linejoin="round"/>
<path opacity="0.3" d="M54.319 52.5166C54.712 52.5166 55.0306 52.198 55.0306 51.8049C55.0306 51.4119 54.712 51.0933 54.319 51.0933C53.9259 51.0933 53.6073 51.4119 53.6073 51.8049C53.6073 52.198 53.9259 52.5166 54.319 52.5166Z" fill="#528AC8"/>
<path d="M54.319 52.5166C54.712 52.5166 55.0306 52.198 55.0306 51.8049C55.0306 51.4119 54.712 51.0933 54.319 51.0933C53.9259 51.0933 53.6073 51.4119 53.6073 51.8049C53.6073 52.198 53.9259 52.5166 54.319 52.5166Z" stroke="#434A54" stroke-miterlimit="10" stroke-linecap="round" stroke-linejoin="round"/>
<path opacity="0.3" d="M58.8677 34.5134H48.9972V42.788H58.8677V34.5134Z" fill="#528AC8"/>
<path d="M58.8678 34.5134H48.7902V42.788H58.8678V34.5134Z" stroke="#434A54" stroke-miterlimit="10" stroke-linecap="round" stroke-linejoin="round"/>
<path d="M49.1262 45.1301H56.8688" stroke="#434A54" stroke-miterlimit="10" stroke-linecap="round" stroke-linejoin="round"/>
<path d="M49.1262 46.4204H55.5784" stroke="#434A54" stroke-miterlimit="10" stroke-linecap="round" stroke-linejoin="round"/>
<path d="M56.9261 26.4041V28.4142" stroke="#434A54" stroke-miterlimit="10" stroke-linecap="round" stroke-linejoin="round"/>
<path d="M57.9314 27.4089H55.9213" stroke="#434A54" stroke-miterlimit="10" stroke-linecap="round" stroke-linejoin="round"/>
<path d="M60.1926 19.2615V22.6192" stroke="#434A54" stroke-miterlimit="10" stroke-linecap="round" stroke-linejoin="round"/>
<path d="M61.8715 20.9404H58.5142" stroke="#434A54" stroke-miterlimit="10" stroke-linecap="round" stroke-linejoin="round"/>
</svg>
