<svg width="80" height="72" viewBox="0 0 80 72" fill="none" xmlns="http://www.w3.org/2000/svg">
<path fill-rule="evenodd" clip-rule="evenodd" d="M41.0905 3.01402C47.8041 2.63242 54.8178 -0.716043 60.9014 2.14916C67.0285 5.03486 69.9279 12.0041 72.9972 18.0413C75.9452 23.8399 79.153 30.0079 78.3466 36.4627C77.5634 42.7322 72.0457 47.0431 68.7042 52.4055C65.4872 57.568 64.4212 64.7221 59.008 67.4967C53.5935 70.272 47.1583 66.112 41.0905 66.5595C34.3744 67.0549 27.7015 73.0621 21.5792 70.2572C15.5635 67.5012 15.4663 58.8953 12.025 53.2436C8.48421 47.4283 1.14543 43.2696 1.00226 36.4627C0.859312 29.6661 7.52568 24.9163 11.3105 19.2692C14.8388 14.0048 16.9758 7.36601 22.5385 4.32965C28.0744 1.30789 34.7936 3.37192 41.0905 3.01402Z" fill="white" stroke="#5B61D9" stroke-width="1.8"/>
<path opacity="0.3" d="M56.6623 51.5787H26.3962V33.9942C26.0743 33.5724 25.2693 32.8357 25.0391 32.7896C24.6939 32.7207 24.4644 33.3814 24.4644 33.9942V51.363C24.4644 51.8489 24.6891 52.3341 25.1254 52.4851C25.676 52.9658 26.4886 53.3251 27.0318 53.3251L56.1722 53.3187C56.7849 53.3187 57.2782 52.9178 57.7129 52.4803L57.9566 52.7044" fill="#528AC8"/>
<path d="M25.0069 32.6157C24.5587 33.0807 24.2822 33.7117 24.2822 34.4046V50.7447C24.2822 52.164 25.4435 53.3254 26.8628 53.3254H55.9833C57.4025 53.3254 58.5639 52.164 58.5639 50.7447V34.4043C58.5639 33.7117 58.2873 33.0803 57.8391 32.6157" stroke="#434A54" stroke-miterlimit="10" stroke-linecap="round" stroke-linejoin="round"/>
<path d="M46.1209 42.5107L57.8303 32.6089" stroke="#434A54" stroke-miterlimit="10" stroke-linecap="round" stroke-linejoin="round"/>
<path d="M25.0146 32.6079L36.6934 42.4843" stroke="#434A54" stroke-miterlimit="10" stroke-linecap="round" stroke-linejoin="round"/>
<path d="M27.12 30.5032L25.0146 32.608" stroke="#434A54" stroke-miterlimit="10" stroke-linecap="round" stroke-linejoin="round"/>
<path d="M48.5205 23.2999L41.4231 16.2031L34.3186 23.3063" stroke="#434A54" stroke-miterlimit="10" stroke-linecap="round" stroke-linejoin="round"/>
<path d="M57.8303 32.6091L55.7391 30.5178" stroke="#434A54" stroke-miterlimit="10" stroke-linecap="round" stroke-linejoin="round"/>
<path d="M41.4223 38.6494L24.9348 52.4552" stroke="#434A54" stroke-miterlimit="10" stroke-linecap="round" stroke-linejoin="round"/>
<path d="M41.4223 38.6494L57.8304 52.4765" stroke="#434A54" stroke-miterlimit="10" stroke-linecap="round" stroke-linejoin="round"/>
<path d="M55.7263 34.3882L55.7633 23.2996H27.1201V34.3882" stroke="#434A54" stroke-miterlimit="10" stroke-linecap="round" stroke-linejoin="round"/>
<path opacity="0.3" d="M35.9366 32.9949C36.7275 32.9012 37.2926 32.184 37.1989 31.3931C37.1051 30.6022 36.388 30.0371 35.5971 30.1308C34.8062 30.2245 34.241 30.9417 34.3348 31.7326C34.4285 32.5235 35.1457 33.0886 35.9366 32.9949Z" fill="#528AC8"/>
<path d="M35.9366 32.9949C36.7275 32.9012 37.2926 32.184 37.1989 31.3931C37.1051 30.6022 36.388 30.0371 35.5971 30.1308C34.8062 30.2245 34.241 30.9417 34.3348 31.7326C34.4285 32.5235 35.1457 33.0886 35.9366 32.9949Z" stroke="#434A54" stroke-miterlimit="10" stroke-linecap="round" stroke-linejoin="round"/>
<path opacity="0.3" d="M41.8509 32.9947C42.6418 32.9009 43.207 32.1838 43.1132 31.3929C43.0195 30.602 42.3024 30.0368 41.5115 30.1306C40.7206 30.2243 40.1554 30.9414 40.2491 31.7323C40.3429 32.5232 41.06 33.0884 41.8509 32.9947Z" fill="#528AC8"/>
<path d="M41.8509 32.9947C42.6418 32.9009 43.207 32.1838 43.1132 31.3929C43.0195 30.602 42.3024 30.0368 41.5115 30.1306C40.7206 30.2243 40.1554 30.9414 40.2491 31.7323C40.3429 32.5232 41.06 33.0884 41.8509 32.9947Z" stroke="#434A54" stroke-miterlimit="10" stroke-linecap="round" stroke-linejoin="round"/>
<path opacity="0.3" d="M47.766 32.9949C48.5569 32.9012 49.1221 32.184 49.0283 31.3931C48.9346 30.6022 48.2175 30.0371 47.4266 30.1308C46.6357 30.2245 46.0705 30.9417 46.1642 31.7326C46.258 32.5235 46.9751 33.0886 47.766 32.9949Z" fill="#528AC8"/>
<path d="M47.766 32.9949C48.5569 32.9012 49.1221 32.184 49.0283 31.3931C48.9346 30.6022 48.2175 30.0371 47.4266 30.1308C46.6357 30.2245 46.0705 30.9417 46.1642 31.7326C46.258 32.5235 46.9751 33.0886 47.766 32.9949Z" stroke="#434A54" stroke-miterlimit="10" stroke-linecap="round" stroke-linejoin="round"/>
<path d="M53.8826 13.7278V17.5416" stroke="#434A54" stroke-miterlimit="10" stroke-linecap="round" stroke-linejoin="round"/>
<path d="M55.7894 15.635H51.9759" stroke="#434A54" stroke-miterlimit="10" stroke-linecap="round" stroke-linejoin="round"/>
<path d="M19.508 25.3403V29.1539" stroke="#434A54" stroke-miterlimit="10" stroke-linecap="round" stroke-linejoin="round"/>
<path d="M17.6013 27.2468H21.4148" stroke="#434A54" stroke-miterlimit="10" stroke-linecap="round" stroke-linejoin="round"/>
<path d="M60.7301 26.7522V29.0354" stroke="#434A54" stroke-miterlimit="10" stroke-linecap="round" stroke-linejoin="round"/>
<path d="M61.8716 27.8938H59.5884" stroke="#434A54" stroke-miterlimit="10" stroke-linecap="round" stroke-linejoin="round"/>
</svg>
