<svg width="42" height="42" viewBox="0 0 42 42" fill="none" xmlns="http://www.w3.org/2000/svg">
<path d="M21 40.6818C32.0457 40.6818 41 31.7987 41 20.8409C41 9.88308 32.0457 1 21 1C9.9543 1 1 9.88308 1 20.8409C1 31.7987 9.9543 40.6818 21 40.6818Z" stroke="white" stroke-width="2" stroke-miterlimit="1" stroke-linecap="round" stroke-linejoin="round"/>
<path d="M17.0967 31.26C17.1035 32.5878 17.1185 34.4709 17.1185 34.8496" stroke="white" stroke-width="2" stroke-miterlimit="1" stroke-linecap="round" stroke-linejoin="round"/>
<path d="M25.0594 34.7628C25.0594 34.2634 25.0772 31.4968 25.0772 29.4681C25.0772 28.0536 24.5888 27.1308 24.0406 26.6602C27.444 26.2848 31.0196 25.0025 31.0196 19.1788C31.0196 17.5233 30.4266 16.1707 29.4466 15.109C29.6054 14.7271 30.1286 13.1848 29.2968 11.0964C29.2968 11.0964 28.0152 10.6889 25.0978 12.6507C23.8764 12.3146 22.3678 12.1464 21.0688 12.1406C19.7698 12.1464 18.2624 12.3146 17.0432 12.6507C14.1224 10.6889 12.839 11.0964 12.839 11.0964C12.0092 13.185 12.5322 14.7271 12.691 15.109C11.7132 16.1709 11.1162 17.5235 11.1162 19.1788C11.1162 24.9886 14.685 26.2888 18.0798 26.6723C17.6428 27.0509 17.4466 29.8062 17.3094 30.7863C16.4372 31.1736 14.2248 31.8438 12.8616 29.5258C12.8616 29.5258 12.0534 28.0703 10.5186 27.9631" stroke="white" stroke-width="2" stroke-miterlimit="1" stroke-linecap="round" stroke-linejoin="round"/>
</svg>
