<svg width="42" height="42" viewBox="0 0 42 42" fill="none" xmlns="http://www.w3.org/2000/svg">
<path d="M21 41C32.0457 41 41 32.0457 41 21C41 9.9543 32.0457 1 21 1C9.9543 1 1 9.9543 1 21C1 32.0457 9.9543 41 21 41Z" stroke="#434A54" stroke-width="2" stroke-miterlimit="1" stroke-linecap="round" stroke-linejoin="round"/>
<path d="M17.0967 31.5026C17.1035 32.841 17.1185 34.7392 17.1185 35.121" stroke="#434A54" stroke-width="2" stroke-miterlimit="1" stroke-linecap="round" stroke-linejoin="round"/>
<path d="M25.0594 35.0336C25.0594 34.5302 25.0772 31.7414 25.0772 29.6964C25.0772 28.2706 24.5888 27.3404 24.0406 26.866C27.444 26.4876 31.0196 25.195 31.0196 19.3246C31.0196 17.6558 30.4266 16.2924 29.4466 15.2222C29.6054 14.8372 30.1286 13.2826 29.2968 11.1774C29.2968 11.1774 28.0152 10.7666 25.0978 12.7442C23.8764 12.4054 22.3678 12.2358 21.0688 12.23C19.7698 12.2358 18.2624 12.4054 17.0432 12.7442C14.1224 10.7666 12.839 11.1774 12.839 11.1774C12.0092 13.2828 12.5322 14.8372 12.691 15.2222C11.7132 16.2926 11.1162 17.656 11.1162 19.3246C11.1162 25.181 14.685 26.4916 18.0798 26.8782C17.6428 27.2598 17.4466 30.0372 17.3094 31.0252C16.4372 31.4156 14.2248 32.0912 12.8616 29.7546C12.8616 29.7546 12.0534 28.2874 10.5186 28.1794" stroke="#434A54" stroke-width="2" stroke-miterlimit="1" stroke-linecap="round" stroke-linejoin="round"/>
</svg>
