<svg width="40" height="40" viewBox="0 0 40 40" fill="none" xmlns="http://www.w3.org/2000/svg">
<path d="M31.3587 9.4474C31.1047 9.22796 30.7954 9.08223 30.4644 9.02599C30.1334 8.96976 29.7934 9.00516 29.4811 9.12838L5.16987 18.6793C4.79908 18.8249 4.48542 19.0867 4.27584 19.4255C4.06626 19.7643 3.97202 20.1619 4.00721 20.5587C4.04241 20.9555 4.20516 21.3303 4.4711 21.6269C4.73704 21.9235 5.09188 22.126 5.48252 22.2041L11.8695 23.4814V31.4106C11.8692 31.7755 11.9771 32.1323 12.1797 32.4358C12.3823 32.7393 12.6704 32.9758 13.0076 33.1154C13.3447 33.255 13.7156 33.2915 14.0735 33.2201C14.4313 33.1487 14.7599 32.9728 15.0177 32.7145L18.6099 29.1224L23.9824 33.8503C24.3165 34.147 24.7477 34.3111 25.1946 34.3116C25.3888 34.3114 25.5818 34.2808 25.7666 34.2209C26.0714 34.1242 26.3455 33.9493 26.5616 33.7136C26.7777 33.4779 26.9283 33.1897 26.9982 32.8776L31.9529 11.2568C32.0284 10.9297 32.0129 10.5882 31.9082 10.2693C31.8034 9.95031 31.6134 9.6661 31.3587 9.4474ZM5.58177 20.419C5.57324 20.3618 5.58524 20.3035 5.61565 20.2544C5.64606 20.2053 5.6929 20.1685 5.74784 20.1506L26.0902 12.1589L12.4767 21.9909L5.79248 20.654C5.73523 20.6461 5.68264 20.6181 5.64406 20.5751C5.60548 20.5321 5.58341 20.4767 5.58177 20.419ZM13.9 31.5969C13.8631 31.6337 13.8162 31.6588 13.7651 31.669C13.714 31.6792 13.661 31.674 13.6129 31.654C13.5647 31.6341 13.5236 31.6003 13.4946 31.557C13.4657 31.5137 13.4502 31.4627 13.4502 31.4106V24.5819L17.4208 28.0761L13.9 31.5969ZM25.4574 32.5245C25.4472 32.569 25.4257 32.6101 25.3948 32.6437C25.364 32.6774 25.3249 32.7024 25.2815 32.7165C25.2381 32.7305 25.1917 32.733 25.147 32.7237C25.1023 32.7144 25.0608 32.6937 25.0266 32.6636L13.9254 22.8945L30.3892 11.0041L25.4574 32.5245Z" fill="#434A54"/>
<circle cx="20" cy="20" r="19" stroke="#434A54" stroke-width="2"/>
</svg>
