<svg width="40" height="40" viewBox="0 0 40 40" fill="none" xmlns="http://www.w3.org/2000/svg">
<path d="M31.3587 9.37231C31.1047 9.15461 30.7954 9.01004 30.4644 8.95425C30.1334 8.89847 29.7934 8.93359 29.4811 9.05582L5.16987 18.5307C4.79908 18.6752 4.48542 18.935 4.27584 19.2711C4.06626 19.6072 3.97202 20.0015 4.00721 20.3952C4.04241 20.7889 4.20516 21.1606 4.4711 21.4549C4.73704 21.7491 5.09188 21.9501 5.48252 22.0276L11.8695 23.2947V31.1608C11.8692 31.5228 11.9771 31.8768 12.1797 32.1778C12.3823 32.4789 12.6704 32.7135 13.0076 32.8521C13.3447 32.9906 13.7156 33.0267 14.0735 32.9559C14.4313 32.8851 14.7599 32.7106 15.0177 32.4544L18.6099 28.8908L23.9824 33.5811C24.3165 33.8754 24.7477 34.0382 25.1946 34.0387C25.3888 34.0385 25.5818 34.0081 25.7666 33.9488C26.0714 33.8528 26.3455 33.6793 26.5616 33.4455C26.7777 33.2117 26.9283 32.9257 26.9982 32.6162L31.9529 11.1674C32.0284 10.8429 32.0129 10.504 31.9082 10.1876C31.8034 9.87122 31.6134 9.58927 31.3587 9.37231ZM5.58177 20.2566C5.57324 20.1999 5.58524 20.1421 5.61565 20.0933C5.64606 20.0446 5.6929 20.0081 5.74784 19.9904L26.0902 12.0623L12.4767 21.816L5.79248 20.4898C5.73523 20.4819 5.68264 20.4542 5.64406 20.4115C5.60548 20.3688 5.58341 20.3139 5.58177 20.2566ZM13.9 31.3456C13.8631 31.3822 13.8162 31.4071 13.7651 31.4172C13.714 31.4272 13.661 31.4221 13.6129 31.4023C13.5647 31.3825 13.5236 31.349 13.4946 31.306C13.4657 31.2631 13.4502 31.2125 13.4502 31.1608V24.3864L17.4208 27.8528L13.9 31.3456ZM25.4574 32.2659C25.4472 32.31 25.4257 32.3508 25.3948 32.3841C25.364 32.4175 25.3249 32.4424 25.2815 32.4563C25.2381 32.4702 25.1917 32.4727 25.147 32.4635C25.1023 32.4543 25.0608 32.4337 25.0266 32.4038L13.9254 22.7124L30.3892 10.9166L25.4574 32.2659Z" fill="white"/>
<path d="M39 19.8409C39 30.2389 30.501 38.6818 20 38.6818C9.49905 38.6818 1 30.2389 1 19.8409C1 9.44288 9.49905 1 20 1C30.501 1 39 9.44288 39 19.8409Z" stroke="white" stroke-width="2"/>
</svg>
