<svg width="42" height="42" viewBox="0 0 42 42" fill="none" xmlns="http://www.w3.org/2000/svg">
<path d="M21 40.6818C32.0457 40.6818 41 31.7987 41 20.8409C41 9.88308 32.0457 1 21 1C9.9543 1 1 9.88308 1 20.8409C1 31.7987 9.9543 40.6818 21 40.6818Z" stroke="white" stroke-width="2" stroke-miterlimit="1" stroke-linecap="round" stroke-linejoin="round"/>
<path d="M17.8029 20.1539C17.9233 20.0581 19.3637 18.1827 19.4967 18.0536C19.6297 17.9244 19.6721 17.8224 19.7583 17.6627C19.8445 17.503 19.7935 17.3399 19.7199 17.1949C19.6465 17.0498 19.0511 15.6457 18.8035 15.0737C18.5623 14.5165 18.3369 14.5445 18.1669 14.5052C18.0057 14.4679 17.8213 14.4326 17.6371 14.3987C17.4529 14.3648 17.1559 14.3763 16.9113 14.5947C16.6669 14.8132 15.9743 15.3225 16.0173 16.625C16.0603 17.9276 17.0915 19.3676 17.2355 19.5696C17.3795 19.7716 19.2773 22.7769 22.0861 24.4316C22.7541 24.8253 23.2741 25.0826 23.6793 25.2781C24.3477 25.6009 24.9489 25.683 25.4227 25.7023C25.9509 25.7237 27.0359 25.362 27.2459 24.7862C27.4557 24.2102 27.4383 23.6805 27.3655 23.5575C27.2927 23.4344 27.1065 23.3344 26.8259 23.1511C26.5453 22.968 25.1661 22.0785 24.9099 21.9436C24.6537 21.8089 24.4683 21.7309 24.2927 21.962C24.1173 22.1932 22.1359 24.1193 21.9807 24.2664" stroke="white" stroke-width="2" stroke-miterlimit="1" stroke-linecap="round" stroke-linejoin="round"/>
<path d="M33 20.1514C33 26.3453 27.8512 31.3664 21.5 31.3664C19.5156 31.3664 17.6488 30.8764 16.0196 30.0135C15.1552 30.1676 10 31.7533 10 31.7533C10 31.7533 11.4276 27.3834 11.7792 26.1465C10.6524 24.4124 10 22.3563 10 20.1514C10 13.9574 15.1488 8.93628 21.5 8.93628C27.8512 8.93628 33 13.9574 33 20.1514Z" stroke="white" stroke-width="2" stroke-miterlimit="1" stroke-linecap="round" stroke-linejoin="round"/>
</svg>
