<svg width="42" height="42" viewBox="0 0 42 42" fill="none" xmlns="http://www.w3.org/2000/svg">
<path d="M21 41C32.0457 41 41 32.0457 41 21C41 9.9543 32.0457 1 21 1C9.9543 1 1 9.9543 1 21C1 32.0457 9.9543 41 21 41Z" stroke="#434A54" stroke-width="2" stroke-miterlimit="1" stroke-linecap="round" stroke-linejoin="round"/>
<path d="M17.8029 20.3076C17.9233 20.211 19.3637 18.3206 19.4967 18.1904C19.6297 18.0602 19.6721 17.9574 19.7583 17.7964C19.8445 17.6354 19.7935 17.471 19.7199 17.3248C19.6465 17.1786 19.0511 15.7632 18.8035 15.1866C18.5623 14.625 18.3369 14.6532 18.1669 14.6136C18.0057 14.576 17.8213 14.5404 17.6371 14.5062C17.4529 14.472 17.1559 14.4836 16.9113 14.7038C16.6669 14.924 15.9743 15.4374 16.0173 16.7504C16.0603 18.0634 17.0915 19.515 17.2355 19.7186C17.3795 19.9222 19.2773 22.9516 22.0861 24.6196C22.7541 25.0164 23.2741 25.2758 23.6793 25.4728C24.3477 25.7982 24.9489 25.881 25.4227 25.9004C25.9509 25.922 27.0359 25.5574 27.2459 24.977C27.4557 24.3964 27.4383 23.8624 27.3655 23.7384C27.2927 23.6144 27.1065 23.5136 26.8259 23.3288C26.5453 23.1442 25.1661 22.2476 24.9099 22.1116C24.6537 21.9758 24.4683 21.8972 24.2927 22.1302C24.1173 22.3632 22.1359 24.3048 21.9807 24.453" stroke="#434A54" stroke-width="2" stroke-miterlimit="1" stroke-linecap="round" stroke-linejoin="round"/>
<path d="M33 20.305C33 26.5486 27.8512 31.61 21.5 31.61C19.5156 31.61 17.6488 31.116 16.0196 30.2462C15.1552 30.4016 10 32 10 32C10 32 11.4276 27.595 11.7792 26.3482C10.6524 24.6002 10 22.5276 10 20.305C10 14.0614 15.1488 9 21.5 9C27.8512 9 33 14.0614 33 20.305Z" stroke="#434A54" stroke-width="2" stroke-miterlimit="1" stroke-linecap="round" stroke-linejoin="round"/>
</svg>
