<svg width="36" height="13" viewBox="0 0 36 13" fill="none" xmlns="http://www.w3.org/2000/svg">
<path d="M6.456 9.752L0.744 7.58V6.02L6.456 3.848V5.348L1.308 7.22V6.38L6.456 8.252V9.752ZM12.2356 11.144C11.5716 11.144 10.9596 11.04 10.3996 10.832C9.84759 10.616 9.36359 10.312 8.94759 9.92C8.53959 9.528 8.21959 9.068 7.98759 8.54C7.76359 8.012 7.65159 7.432 7.65159 6.8C7.65159 6.168 7.76359 5.588 7.98759 5.06C8.21959 4.532 8.54359 4.072 8.95959 3.68C9.37559 3.288 9.86359 2.988 10.4236 2.78C10.9836 2.564 11.5996 2.456 12.2716 2.456C13.0156 2.456 13.6836 2.58 14.2756 2.828C14.8756 3.076 15.3796 3.436 15.7876 3.908L14.5396 5.06C14.2356 4.74 13.9036 4.504 13.5436 4.352C13.1836 4.192 12.7916 4.112 12.3676 4.112C11.9596 4.112 11.5876 4.176 11.2516 4.304C10.9156 4.432 10.6236 4.616 10.3756 4.856C10.1356 5.096 9.94759 5.38 9.81159 5.708C9.68359 6.036 9.61959 6.4 9.61959 6.8C9.61959 7.192 9.68359 7.552 9.81159 7.88C9.94759 8.208 10.1356 8.496 10.3756 8.744C10.6236 8.984 10.9116 9.168 11.2396 9.296C11.5756 9.424 11.9436 9.488 12.3436 9.488C12.7276 9.488 13.0996 9.428 13.4596 9.308C13.8276 9.18 14.1836 8.968 14.5276 8.672L15.6316 10.076C15.1756 10.42 14.6436 10.684 14.0356 10.868C13.4356 11.052 12.8356 11.144 12.2356 11.144ZM13.8556 9.824V6.668H15.6316V10.076L13.8556 9.824ZM17.4374 11V2.6H19.3814V9.416H23.5934V11H17.4374ZM23.4868 12.2L27.4468 0.895999H29.1148L25.1548 12.2H23.4868ZM29.326 9.752V8.252L34.474 6.38V7.22L29.326 5.348V3.848L35.038 6.02V7.58L29.326 9.752Z" fill="white"/>
</svg>
